<svg xmlns="http://www.w3.org/2000/svg" xmlns:xlink="http://www.w3.org/1999/xlink" width="1366" zoomAndPan="magnify" viewBox="0 0 1024.5 576" height="768" preserveAspectRatio="xMidYMid meet" version="1.0"><defs><clipPath id="4239271c19"><path d="M 434 305 L 469 305 L 469 340 L 434 340 Z M 434 305 " clip-rule="nonzero"/></clipPath><clipPath id="c44d56f973"><path d="M 602.265625 298.703125 C 603.1875 299.625 595.816406 392.65625 513.835938 392.65625 C 431.859375 392.65625 419.882812 299.625 419.882812 299.625 C 419.882812 299.625 365.539062 319.886719 365.539062 323.574219 C 365.539062 327.257812 387.644531 440.554688 387.644531 440.554688 C 387.644531 440.554688 646.476562 446.082031 646.476562 446.082031 C 646.476562 446.082031 659.375 299.625 659.375 299.625 C 659.375 299.625 601.34375 297.78125 602.265625 298.703125 " clip-rule="nonzero"/></clipPath></defs><g clip-path="url(#4239271c19)"><g clip-path="url(#c44d56f973)"><path fill="#e76b00" d="M 434.738281 323.9375 C 434.25 314.644531 441.386719 306.71875 450.679688 306.230469 C 450.679688 306.230469 466.949219 305.378906 466.949219 305.378906 C 466.949219 305.378906 468.714844 339.027344 468.714844 339.027344 C 468.714844 339.027344 452.441406 339.878906 452.441406 339.878906 C 443.152344 340.367188 435.226562 333.226562 434.738281 323.9375 Z M 434.738281 323.9375 " fill-opacity="1" fill-rule="nonzero"/></g></g></svg>